<svg xmlns="http://www.w3.org/2000/svg" xmlns:xlink="http://www.w3.org/1999/xlink" xmlns:lucid="lucid" width="1505" height="797"><g transform="translate(-99 0)" lucid:page-tab-id="0_0"><path d="M403.4 74c0-6.63 5.4-12 12-12h936.2c6.6 0 12 5.37 12 12v39.08c0 6.62-5.4 12-12 12H415.4c-6.6 0-12-5.38-12-12z" stroke="#000" stroke-opacity="0" stroke-width="2" fill="#fff" fill-opacity="0"/><use xlink:href="#a" transform="matrix(1,0,0,1,408.41289017655055,66.99999999999994) translate(346.0925925925926 31.458333333333336)"/><use xlink:href="#b" transform="matrix(1,0,0,1,408.41289017655055,66.99999999999994) translate(415.5 31.458333333333336)"/><use xlink:href="#c" transform="matrix(1,0,0,1,408.41289017655055,66.99999999999994) translate(514.6851851851852 31.458333333333336)"/><path d="M658.54 129.87c0-6.63 5.38-12 12-12h430c6.63 0 12 5.37 12 12V140c0 6.63-5.37 12-12 12h-430c-6.62 0-12-5.37-12-12z" stroke="#000" stroke-opacity="0" stroke-width="2" fill="#fff" fill-opacity="0"/><use xlink:href="#d" transform="matrix(1,0,0,1,663.5444743839482,122.86936285872466) translate(119.40123456790124 15.569444444444446)"/><use xlink:href="#e" transform="matrix(1,0,0,1,663.5444743839482,122.86936285872466) translate(214.41975308641975 15.569444444444446)"/><use xlink:href="#f" transform="matrix(1,0,0,1,663.5444743839482,122.86936285872466) translate(227.08024691358025 15.569444444444446)"/><use xlink:href="#g" transform="matrix(1,0,0,1,663.5444743839482,122.86936285872466) translate(265.10493827160496 15.569444444444446)"/><use xlink:href="#h" transform="matrix(1,0,0,1,663.5444743839482,122.86936285872466) translate(291.03086419753083 15.569444444444446)"/><path d="M581.05 117.6h610.2M581.08 117.6h-1.03M1191.24 117.6h1.02" stroke="#b2b2b2" stroke-width="2" fill="none"/><path d="M717.1 282.24h-46.3c-6.63 0-12 5.38-12 12v148c0 6.63-5.38 12-12 12H581" stroke="#000" fill="none"/><path d="M756.36 292.24l-20-10 20-10M756.36 282.24h-20M736.36 282.24c0 5.53-4.47 10-10 10-5.52 0-10-4.47-10-10 0-5.52 4.48-10 10-10 5.53 0 10 4.48 10 10M581 464.24v-20M561 454.24h20" stroke="#000" fill="#fff"/><path d="M260 422.24h-8c-6.63 0-12 5.38-12 12v240c0 6.63 5.37 12 12 12h124.6" stroke="#000" fill="none"/><path d="M279.78 432.24l-20-10 20-10M279.78 422.24h-20M259.78 412.24v20M376.6 676.24v20M396.6 686.24h-20" stroke="#000" fill="#fff"/><path d="M280.5 211.24c0-2.76 2.24-5 5-5h270c2.76 0 5 2.24 5 5v286c0 2.77-2.24 5-5 5h-270c-2.76 0-5-2.23-5-5z" fill="#fff"/><path d="M280.5 206.24h280v40h-280z" fill="#ccc"/><path d="M280.5 211.24c0-2.76 2.24-5 5-5h270c2.76 0 5 2.24 5 5v286c0 2.77-2.24 5-5 5h-270c-2.76 0-5-2.23-5-5zM280.5 246.24h280M420.5 246.24v256" stroke="#666" fill="none"/><use xlink:href="#i" transform="matrix(1,0,0,1,290.5,206.24397807474713) translate(0 23.6)"/><use xlink:href="#j" transform="matrix(1,0,0,1,285.5,248.74397807474713) translate(0 17.1)"/><use xlink:href="#k" transform="matrix(1,0,0,1,425.5,248.74397807474713) translate(0 17.1)"/><use xlink:href="#l" transform="matrix(1,0,0,1,425.5,248.74397807474713) translate(56.95 17.1)"/><use xlink:href="#m" transform="matrix(1,0,0,1,285.5,280.74397807474713) translate(0 17.1)"/><use xlink:href="#n" transform="matrix(1,0,0,1,425.5,280.74397807474713) translate(0 17.1)"/><use xlink:href="#o" transform="matrix(1,0,0,1,285.5,312.74397807474713) translate(0 17.1)"/><use xlink:href="#n" transform="matrix(1,0,0,1,425.5,312.74397807474713) translate(0 17.1)"/><use xlink:href="#p" transform="matrix(1,0,0,1,285.5,344.74397807474713) translate(0 17.1)"/><use xlink:href="#q" transform="matrix(1,0,0,1,425.5,344.74397807474713) translate(0 17.1)"/><use xlink:href="#r" transform="matrix(1,0,0,1,285.5,376.74397807474713) translate(0 17.1)"/><use xlink:href="#s" transform="matrix(1,0,0,1,425.5,376.74397807474713) translate(0 17.1)"/><use xlink:href="#t" transform="matrix(1,0,0,1,285.5,408.74397807474713) translate(0 17.1)"/><use xlink:href="#n" transform="matrix(1,0,0,1,425.5,408.74397807474713) translate(0 17.1)"/><use xlink:href="#u" transform="matrix(1,0,0,1,285.5,440.74397807474713) translate(0 17.1)"/><use xlink:href="#v" transform="matrix(1,0,0,1,425.5,440.74397807474713) translate(0 17.1)"/><use xlink:href="#w" transform="matrix(1,0,0,1,285.5,472.74397807474713) translate(0 17.1)"/><use xlink:href="#n" transform="matrix(1,0,0,1,425.5,472.74397807474713) translate(0 17.1)"/><path d="M757.1 231.24c0-2.76 2.23-5 5-5h270c2.75 0 5 2.24 5 5v222c0 2.77-2.25 5-5 5h-270c-2.77 0-5-2.23-5-5z" fill="#fff"/><path d="M757.1 226.24h280v40h-280z" fill="#ccc"/><path d="M757.1 231.24c0-2.76 2.23-5 5-5h270c2.75 0 5 2.24 5 5v222c0 2.77-2.25 5-5 5h-270c-2.77 0-5-2.23-5-5zM757.1 266.24h280M897.1 266.24v192" stroke="#666" fill="none"/><use xlink:href="#x" transform="matrix(1,0,0,1,767.0871098234495,226.24397807474713) translate(0 23.6)"/><use xlink:href="#y" transform="matrix(1,0,0,1,767.0871098234495,226.24397807474713) translate(63.85000000000001 23.6)"/><use xlink:href="#z" transform="matrix(1,0,0,1,762.0871098234495,268.74397807474713) translate(0 17.1)"/><use xlink:href="#k" transform="matrix(1,0,0,1,902.0871098234495,268.74397807474713) translate(0 17.1)"/><use xlink:href="#l" transform="matrix(1,0,0,1,902.0871098234495,268.74397807474713) translate(56.95 17.1)"/><use xlink:href="#A" transform="matrix(1,0,0,1,762.0871098234495,300.74397807474713) translate(0 17.1)"/><use xlink:href="#q" transform="matrix(1,0,0,1,902.0871098234495,300.74397807474713) translate(0 17.1)"/><use xlink:href="#B" transform="matrix(1,0,0,1,762.0871098234495,332.74397807474713) translate(0 17.1)"/><use xlink:href="#n" transform="matrix(1,0,0,1,902.0871098234495,332.74397807474713) translate(0 17.1)"/><use xlink:href="#C" transform="matrix(1,0,0,1,762.0871098234495,364.74397807474713) translate(0 17.1)"/><use xlink:href="#D" transform="matrix(1,0,0,1,902.0871098234495,364.74397807474713) translate(0 17.1)"/><use xlink:href="#E" transform="matrix(1,0,0,1,762.0871098234495,396.74397807474713) translate(0 17.1)"/><use xlink:href="#s" transform="matrix(1,0,0,1,902.0871098234495,396.74397807474713) translate(0 17.1)"/><use xlink:href="#F" transform="matrix(1,0,0,1,762.0871098234495,428.74397807474713) translate(0 17.1)"/><use xlink:href="#G" transform="matrix(1,0,0,1,902.0871098234495,428.74397807474713) translate(0 17.1)"/><path d="M397.1 571.24c0-2.76 2.23-5 5-5h270c2.75 0 5 2.24 5 5v126c0 2.77-2.25 5-5 5h-270c-2.77 0-5-2.23-5-5z" fill="#fff"/><path d="M397.1 566.24h280v40h-280z" fill="#ccc"/><path d="M397.1 571.24c0-2.76 2.23-5 5-5h270c2.75 0 5 2.24 5 5v126c0 2.77-2.25 5-5 5h-270c-2.77 0-5-2.23-5-5zM397.1 606.24h280M535.37 606.24v96" stroke="#666" fill="none"/><use xlink:href="#H" transform="matrix(1,0,0,1,407.0871098234495,566.2439780747471) translate(0 23.6)"/><use xlink:href="#I" transform="matrix(1,0,0,1,407.0871098234495,566.2439780747471) translate(43.900000000000006 23.6)"/><use xlink:href="#J" transform="matrix(1,0,0,1,407.0871098234495,566.2439780747471) translate(101.70000000000002 23.6)"/><use xlink:href="#K" transform="matrix(1,0,0,1,402.0871098234495,608.7439780747471) translate(0 17.1)"/><use xlink:href="#k" transform="matrix(1,0,0,1,540.366944399311,608.7439780747471) translate(0 17.1)"/><use xlink:href="#l" transform="matrix(1,0,0,1,540.366944399311,608.7439780747471) translate(56.95 17.1)"/><use xlink:href="#m" transform="matrix(1,0,0,1,402.0871098234495,640.7439780747471) translate(0 17.1)"/><use xlink:href="#n" transform="matrix(1,0,0,1,540.366944399311,640.7439780747471) translate(0 17.1)"/><use xlink:href="#L" transform="matrix(1,0,0,1,402.0871098234495,672.7439780747471) translate(0 17.1)"/><use xlink:href="#v" transform="matrix(1,0,0,1,540.366944399311,672.7439780747471) translate(0 17.1)"/><path d="M1233.67 247.24c0-2.76 2.24-5 5-5h270c2.77 0 5 2.24 5 5v190c0 2.77-2.23 5-5 5h-270c-2.76 0-5-2.23-5-5z" fill="#fff"/><path d="M1233.67 242.24h280v40h-280z" fill="#ccc"/><path d="M1233.67 247.24c0-2.76 2.24-5 5-5h270c2.77 0 5 2.24 5 5v190c0 2.77-2.23 5-5 5h-270c-2.76 0-5-2.23-5-5zM1233.67 282.24h280M1373.67 282.24v160" stroke="#666" fill="none"/><use xlink:href="#M" transform="matrix(1,0,0,1,1243.674219646899,242.24397807474713) translate(0 23.6)"/><use xlink:href="#N" transform="matrix(1,0,0,1,1238.674219646899,284.74397807474713) translate(0 17.1)"/><use xlink:href="#O" transform="matrix(1,0,0,1,1378.674219646899,284.74397807474713) translate(0 17.1)"/><use xlink:href="#P" transform="matrix(1,0,0,1,1238.674219646899,316.74397807474713) translate(0 17.1)"/><use xlink:href="#n" transform="matrix(1,0,0,1,1378.674219646899,316.74397807474713) translate(0 17.1)"/><use xlink:href="#Q" transform="matrix(1,0,0,1,1238.674219646899,348.74397807474713) translate(0 17.1)"/><use xlink:href="#n" transform="matrix(1,0,0,1,1378.674219646899,348.74397807474713) translate(0 17.1)"/><use xlink:href="#R" transform="matrix(1,0,0,1,1238.674219646899,380.74397807474713) translate(0 17.1)"/><use xlink:href="#v" transform="matrix(1,0,0,1,1378.674219646899,380.74397807474713) translate(0 17.1)"/><use xlink:href="#u" transform="matrix(1,0,0,1,1238.674219646899,412.74397807474713) translate(0 17.1)"/><use xlink:href="#v" transform="matrix(1,0,0,1,1378.674219646899,412.74397807474713) translate(0 17.1)"/><path d="M1213.17 426.24h-65.8c-6.62 0-12-5.37-12-12v-55.98c0-6.63-5.36-12-12-12h-46.28" stroke="#000" fill="none"/><path d="M1213.17 416.24v20M1233.17 426.24h-20M1037.8 336.26l20 10-20 10M1037.8 346.26h20M1077.8 346.26c0 5.52-4.47 10-10 10-5.5 0-10-4.48-10-10s4.5-10 10-10c5.53 0 10 4.48 10 10" stroke="#000" fill="#fff"/><path d="M1213.17 394.43h-65.8c-6.62 0-12 5.37-12 12v24.17c0 6.63-5.36 12-12 12h-46.28" stroke="#000" fill="none"/><path d="M1213.17 384.43v20M1233.17 394.43h-20M1037.8 432.6l20 10-20 10M1037.8 442.6h20M1077.8 442.6c0 5.52-4.47 10-10 10-5.5 0-10-4.48-10-10s4.5-10 10-10c5.53 0 10 4.48 10 10" stroke="#000" fill="#fff"/><defs><path fill="#b2b2b2" d="M24-248c120-7 223 5 221 122C244-46 201 0 124 0H24v-248zM76-40c74 7 117-18 117-86 0-67-45-88-117-82v168" id="S"/><path fill="#b2b2b2" d="M135-150c-39-12-60 13-60 57V0H25l-1-190h47c2 13-1 29 3 40 6-28 27-53 61-41v41" id="T"/><path fill="#b2b2b2" d="M85 4C-2 5 27-109 22-190h50c7 57-23 150 33 157 60-5 35-97 40-157h50l1 190h-47c-2-12 1-28-3-38-12 25-28 42-61 42" id="U"/><path fill="#b2b2b2" d="M195-6C206 82 75 100 31 46c-4-6-6-13-8-21l49-6c3 16 16 24 34 25 40 0 42-37 40-79-11 22-30 35-61 35-53 0-70-43-70-97 0-56 18-96 73-97 30 0 46 14 59 34l2-30h47zm-90-29c32 0 41-27 41-63 0-35-9-62-40-62-32 0-39 29-40 63 0 36 9 62 39 62" id="V"/><g id="a"><use transform="matrix(0.07407407407407408,0,0,0.07407407407407408,0,0)" xlink:href="#S"/><use transform="matrix(0.07407407407407408,0,0,0.07407407407407408,19.185185185185187,0)" xlink:href="#T"/><use transform="matrix(0.07407407407407408,0,0,0.07407407407407408,29.555555555555554,0)" xlink:href="#U"/><use transform="matrix(0.07407407407407408,0,0,0.07407407407407408,45.777777777777786,0)" xlink:href="#V"/></g><path fill="#b2b2b2" d="M240-174c0 40-23 61-54 70L253 0h-59l-57-94H76V0H24v-248c93 4 217-23 216 74zM76-134c48-2 112 12 112-38 0-48-66-32-112-35v73" id="W"/><path fill="#b2b2b2" d="M185-48c-13 30-37 53-82 52C43 2 14-33 14-96s30-98 90-98c62 0 83 45 84 108H66c0 31 8 55 39 56 18 0 30-7 34-22zm-45-69c5-46-57-63-70-21-2 6-4 13-4 21h74" id="X"/><path fill="#b2b2b2" d="M128 0H69L1-190h53L99-40l48-150h52" id="Y"/><path fill="#b2b2b2" d="M25-224v-37h50v37H25zM25 0v-190h50V0H25" id="Z"/><path fill="#b2b2b2" d="M231 0h-52l-39-155L100 0H48L-1-190h46L77-45c9-52 24-97 36-145h53l37 145 32-145h46" id="aa"/><g id="b"><use transform="matrix(0.07407407407407408,0,0,0.07407407407407408,0,0)" xlink:href="#W"/><use transform="matrix(0.07407407407407408,0,0,0.07407407407407408,19.185185185185187,0)" xlink:href="#X"/><use transform="matrix(0.07407407407407408,0,0,0.07407407407407408,34,0)" xlink:href="#Y"/><use transform="matrix(0.07407407407407408,0,0,0.07407407407407408,48.81481481481481,0)" xlink:href="#Z"/><use transform="matrix(0.07407407407407408,0,0,0.07407407407407408,56.22222222222223,0)" xlink:href="#X"/><use transform="matrix(0.07407407407407408,0,0,0.07407407407407408,71.03703703703704,0)" xlink:href="#aa"/></g><path fill="#b2b2b2" d="M24-248c93 1 206-16 204 79-1 75-69 88-152 82V0H24v-248zm52 121c47 0 100 7 100-41 0-47-54-39-100-39v80" id="ab"/><path fill="#b2b2b2" d="M110-194c64 0 96 36 96 99 0 64-35 99-97 99-61 0-95-36-95-99 0-62 34-99 96-99zm-1 164c35 0 45-28 45-65 0-40-10-65-43-65-34 0-45 26-45 65 0 36 10 65 43 65" id="ac"/><path fill="#b2b2b2" d="M25-224v-37h50v37H25zM75 22c2 45-34 59-81 51V38c22 5 31-5 31-27v-201h50V22" id="ad"/><path fill="#b2b2b2" d="M190-63c-7 42-38 67-86 67-59 0-84-38-90-98-12-110 154-137 174-36l-49 2c-2-19-15-32-35-32-30 0-35 28-38 64-6 74 65 87 74 30" id="ae"/><path fill="#b2b2b2" d="M115-3C79 11 28 4 28-45v-112H4v-33h27l15-45h31v45h36v33H77v99c-1 23 16 31 38 25v30" id="af"/><g id="c"><use transform="matrix(0.07407407407407408,0,0,0.07407407407407408,0,0)" xlink:href="#ab"/><use transform="matrix(0.07407407407407408,0,0,0.07407407407407408,17.77777777777778,0)" xlink:href="#T"/><use transform="matrix(0.07407407407407408,0,0,0.07407407407407408,28.148148148148152,0)" xlink:href="#ac"/><use transform="matrix(0.07407407407407408,0,0,0.07407407407407408,44.37037037037039,0)" xlink:href="#ad"/><use transform="matrix(0.07407407407407408,0,0,0.07407407407407408,51.777777777777786,0)" xlink:href="#X"/><use transform="matrix(0.07407407407407408,0,0,0.07407407407407408,66.59259259259261,0)" xlink:href="#ae"/><use transform="matrix(0.07407407407407408,0,0,0.07407407407407408,81.40740740740742,0)" xlink:href="#af"/></g><path fill="#b2b2b2" d="M141-36C126-15 110 5 73 4 37 3 15-17 15-53c-1-64 63-63 125-63 3-35-9-54-41-54-24 1-41 7-42 31l-33-3c5-37 33-52 76-52 45 0 72 20 72 64v82c-1 20 7 32 28 27v20c-31 9-61-2-59-35zM48-53c0 20 12 33 32 33 41-3 63-29 60-74-43 2-92-5-92 41" id="ag"/><path fill="#b2b2b2" d="M114-163C36-179 61-72 57 0H25l-1-190h30c1 12-1 29 2 39 6-27 23-49 58-41v29" id="ah"/><path fill="#b2b2b2" d="M100-194c62-1 85 37 85 99 1 63-27 99-86 99S16-35 15-95c0-66 28-99 85-99zM99-20c44 1 53-31 53-75 0-43-8-75-51-75s-53 32-53 75 10 74 51 75" id="ai"/><path fill="#b2b2b2" d="M117-194c89-4 53 116 60 194h-32v-121c0-31-8-49-39-48C34-167 62-67 57 0H25l-1-190h30c1 10-1 24 2 32 11-22 29-35 61-36" id="aj"/><path fill="#b2b2b2" d="M177-190C167-65 218 103 67 71c-23-6-38-20-44-43l32-5c15 47 100 32 89-28v-30C133-14 115 1 83 1 29 1 15-40 15-95c0-56 16-97 71-98 29-1 48 16 59 35 1-10 0-23 2-32h30zM94-22c36 0 50-32 50-73 0-42-14-75-50-75-39 0-46 34-46 75s6 73 46 73" id="ak"/><path fill="#b2b2b2" d="M84 4C-5 8 30-112 23-190h32v120c0 31 7 50 39 49 72-2 45-101 50-169h31l1 190h-30c-1-10 1-25-2-33-11 22-28 36-60 37" id="al"/><path fill="#b2b2b2" d="M179-190L93 31C79 59 56 82 12 73V49c39 6 53-20 64-50L1-190h34L92-34l54-156h33" id="am"/><path fill="#b2b2b2" d="M100-194c63 0 86 42 84 106H49c0 40 14 67 53 68 26 1 43-12 49-29l28 8c-11 28-37 45-77 45C44 4 14-33 15-96c1-61 26-98 85-98zm52 81c6-60-76-77-97-28-3 7-6 17-6 28h103" id="an"/><path fill="#b2b2b2" d="M59-47c-2 24 18 29 38 22v24C64 9 27 4 27-40v-127H5v-23h24l9-43h21v43h35v23H59v120" id="ao"/><g id="d"><use transform="matrix(0.04320987654320988,0,0,0.04320987654320988,0,0)" xlink:href="#ag"/><use transform="matrix(0.04320987654320988,0,0,0.04320987654320988,8.641975308641976,0)" xlink:href="#ag"/><use transform="matrix(0.04320987654320988,0,0,0.04320987654320988,17.283950617283953,0)" xlink:href="#ah"/><use transform="matrix(0.04320987654320988,0,0,0.04320987654320988,22.425925925925927,0)" xlink:href="#ai"/><use transform="matrix(0.04320987654320988,0,0,0.04320987654320988,31.067901234567906,0)" xlink:href="#aj"/><use transform="matrix(0.04320987654320988,0,0,0.04320987654320988,39.70987654320988,0)" xlink:href="#ak"/><use transform="matrix(0.04320987654320988,0,0,0.04320987654320988,48.351851851851855,0)" xlink:href="#al"/><use transform="matrix(0.04320987654320988,0,0,0.04320987654320988,56.99382716049384,0)" xlink:href="#am"/><use transform="matrix(0.04320987654320988,0,0,0.04320987654320988,64.77160493827161,0)" xlink:href="#an"/><use transform="matrix(0.04320987654320988,0,0,0.04320987654320988,73.41358024691358,0)" xlink:href="#ao"/><use transform="matrix(0.04320987654320988,0,0,0.04320987654320988,77.73456790123457,0)" xlink:href="#ao"/></g><path fill="#b2b2b2" d="M32 76v-337h29V76H32" id="ap"/><use transform="matrix(0.04320987654320988,0,0,0.04320987654320988,0,0)" xlink:href="#ap" id="e"/><path fill="#b2b2b2" d="M153-248C145-148 188 4 80 4 36 3 13-21 6-62l32-5c4 25 16 42 43 43 27 0 39-20 39-49v-147H72v-28h81" id="aq"/><g id="f"><use transform="matrix(0.04320987654320988,0,0,0.04320987654320988,0,0)" xlink:href="#aq"/><use transform="matrix(0.04320987654320988,0,0,0.04320987654320988,7.777777777777779,0)" xlink:href="#al"/><use transform="matrix(0.04320987654320988,0,0,0.04320987654320988,16.419753086419753,0)" xlink:href="#aj"/><use transform="matrix(0.04320987654320988,0,0,0.04320987654320988,25.061728395061728,0)" xlink:href="#an"/></g><path fill="#b2b2b2" d="M27 0v-27h64v-190l-56 39v-29l58-41h29v221h61V0H27" id="ar"/><path fill="#b2b2b2" d="M54-142c48-35 137-8 131 61C196 18 31 33 14-55l32-4c7 23 22 37 52 37 35-1 51-22 54-58 4-55-73-65-99-34H22l8-134h141v27H59" id="as"/><path fill="#b2b2b2" d="M68-38c1 34 0 65-14 84H32c9-13 17-26 17-46H33v-38h35" id="at"/><g id="g"><use transform="matrix(0.04320987654320988,0,0,0.04320987654320988,0,0)" xlink:href="#ar"/><use transform="matrix(0.04320987654320988,0,0,0.04320987654320988,8.641975308641976,0)" xlink:href="#as"/><use transform="matrix(0.04320987654320988,0,0,0.04320987654320988,17.283950617283953,0)" xlink:href="#at"/></g><path fill="#b2b2b2" d="M101-251c82-7 93 87 43 132L82-64C71-53 59-42 53-27h129V0H18c2-99 128-94 128-182 0-28-16-43-45-43s-46 15-49 41l-32-3c6-41 34-60 81-64" id="au"/><path fill="#b2b2b2" d="M101-251c68 0 85 55 85 127S166 4 100 4C33 4 14-52 14-124c0-73 17-127 87-127zm-1 229c47 0 54-49 54-102s-4-102-53-102c-51 0-55 48-55 102 0 53 5 102 54 102" id="av"/><g id="h"><use transform="matrix(0.04320987654320988,0,0,0.04320987654320988,0,0)" xlink:href="#au"/><use transform="matrix(0.04320987654320988,0,0,0.04320987654320988,8.641975308641976,0)" xlink:href="#av"/><use transform="matrix(0.04320987654320988,0,0,0.04320987654320988,17.283950617283953,0)" xlink:href="#au"/><use transform="matrix(0.04320987654320988,0,0,0.04320987654320988,25.925925925925927,0)" xlink:href="#av"/></g><path d="M248-139C247-14 144 9 11 0l48-248c105-6 190 8 189 109zm-34 0c1-70-52-87-126-82L50-27c98 7 163-21 164-112" id="aw"/><path d="M66-151c12-25 30-51 66-40l-6 26C45-176 58-65 38 0H6l36-190h30" id="ax"/><path d="M67 3c-93-2-31-127-26-193h32L48-50c-3 39 53 32 70 12 30-34 30-101 43-152h32L157 0h-30c1-10 6-24 4-33-14 20-29 37-64 36" id="ay"/><path d="M103-194c29 0 47 14 56 36 2-11 5-23 8-32h30L160-5C157 61 82 97 21 62 9 55 4 45 1 30l28-7c7 42 83 31 92-3 4-16 9-38 13-55-13 20-29 36-62 36-40 0-60-25-60-64 0-71 23-131 91-131zm4 24c-53 0-58 54-61 104-2 27 10 44 36 44 49 0 65-50 67-102 1-29-15-46-42-46" id="az"/><g id="i"><use transform="matrix(0.05,0,0,0.05,0,0)" xlink:href="#aw"/><use transform="matrix(0.05,0,0,0.05,12.950000000000001,0)" xlink:href="#ax"/><use transform="matrix(0.05,0,0,0.05,18.900000000000002,0)" xlink:href="#ay"/><use transform="matrix(0.05,0,0,0.05,28.900000000000002,0)" xlink:href="#az"/></g><path d="M85-194c31 0 48 13 60 33l-1-100h32l1 261h-30c-2-10 0-23-3-31C134-8 116 4 85 4 32 4 16-35 15-94c0-66 23-100 70-100zm9 24c-40 0-46 34-46 75 0 40 6 74 45 74 42 0 51-32 51-76 0-42-9-74-50-73" id="aA"/><path d="M114-163C36-179 61-72 57 0H25l-1-190h30c1 12-1 29 2 39 6-27 23-49 58-41v29" id="aB"/><path d="M84 4C-5 8 30-112 23-190h32v120c0 31 7 50 39 49 72-2 45-101 50-169h31l1 190h-30c-1-10 1-25-2-33-11 22-28 36-60 37" id="aC"/><path d="M177-190C167-65 218 103 67 71c-23-6-38-20-44-43l32-5c15 47 100 32 89-28v-30C133-14 115 1 83 1 29 1 15-40 15-95c0-56 16-97 71-98 29-1 48 16 59 35 1-10 0-23 2-32h30zM94-22c36 0 50-32 50-73 0-42-14-75-50-75-39 0-46 34-46 75s6 73 46 73" id="aD"/><path d="M33 0v-248h34V0H33" id="aE"/><g id="j"><use transform="matrix(0.05,0,0,0.05,0,0)" xlink:href="#aA"/><use transform="matrix(0.05,0,0,0.05,10,0)" xlink:href="#aB"/><use transform="matrix(0.05,0,0,0.05,15.949999999999998,0)" xlink:href="#aC"/><use transform="matrix(0.05,0,0,0.05,25.950000000000003,0)" xlink:href="#aD"/><use transform="matrix(0.05,0,0,0.05,35.95,0)" xlink:href="#aE"/><use transform="matrix(0.05,0,0,0.05,40.95,0)" xlink:href="#aA"/></g><path d="M140-251c81 0 123 46 123 126C263-46 219 4 140 4 59 4 17-45 17-125s42-126 123-126zm0 227c63 0 89-41 89-101s-29-99-89-99c-61 0-89 39-89 99S79-25 140-24" id="aF"/><path d="M115-194c53 0 69 39 70 98 0 66-23 100-70 100C84 3 66-7 56-30L54 0H23l1-261h32v101c10-23 28-34 59-34zm-8 174c40 0 45-34 45-75 0-40-5-75-45-74-42 0-51 32-51 76 0 43 10 73 51 73" id="aG"/><path d="M24-231v-30h32v30H24zM-9 49c24 4 33-6 33-30v-209h32V24c2 40-23 58-65 49V49" id="aH"/><path d="M100-194c63 0 86 42 84 106H49c0 40 14 67 53 68 26 1 43-12 49-29l28 8c-11 28-37 45-77 45C44 4 14-33 15-96c1-61 26-98 85-98zm52 81c6-60-76-77-97-28-3 7-6 17-6 28h103" id="aI"/><path d="M96-169c-40 0-48 33-48 73s9 75 48 75c24 0 41-14 43-38l32 2c-6 37-31 61-74 61-59 0-76-41-82-99-10-93 101-131 147-64 4 7 5 14 7 22l-32 3c-4-21-16-35-41-35" id="aJ"/><path d="M59-47c-2 24 18 29 38 22v24C64 9 27 4 27-40v-127H5v-23h24l9-43h21v43h35v23H59v120" id="aK"/><g id="k"><use transform="matrix(0.05,0,0,0.05,0,0)" xlink:href="#aF"/><use transform="matrix(0.05,0,0,0.05,14,0)" xlink:href="#aG"/><use transform="matrix(0.05,0,0,0.05,24,0)" xlink:href="#aH"/><use transform="matrix(0.05,0,0,0.05,27.950000000000003,0)" xlink:href="#aI"/><use transform="matrix(0.05,0,0,0.05,37.95,0)" xlink:href="#aJ"/><use transform="matrix(0.05,0,0,0.05,46.95,0)" xlink:href="#aK"/></g><path d="M30-248c118-7 216 8 213 122C240-48 200 0 122 0H30v-248zM63-27c89 8 146-16 146-99s-60-101-146-95v194" id="aL"/><g id="l"><use transform="matrix(0.05,0,0,0.05,0,0)" xlink:href="#aE"/><use transform="matrix(0.05,0,0,0.05,5,0)" xlink:href="#aL"/></g><path d="M67-158c22-48 132-52 116 29L158 0h-32l25-140c3-38-53-32-70-12C52-117 51-52 38 0H6l36-190h30" id="aM"/><path d="M165-48c-4 18 1 34 23 27l-3 20c-29 8-62 0-52-35h-2C116-14 99 4 63 4 30 4 8-16 8-49c0-68 71-67 138-67 10-26 0-56-31-54-26 1-42 9-47 31l-32-5c8-67 160-71 144 15-5 28-9 54-15 81zM42-50c3 52 80 24 89-6 7-12 7-24 11-38-47 1-103-4-100 44" id="aN"/><path d="M248-111c6-24 9-61-24-58-72 9-57 108-77 169h-31l26-142c3-37-50-30-64-10C52-115 50-51 37 0H6l36-190h30c-1 10-6 24-4 32 13-43 101-52 105 5 13-22 29-41 61-41 90 0 28 129 23 194h-31" id="aO"/><path d="M111-194c62-3 86 47 72 106H45c-7 38 6 69 45 68 27-1 43-14 53-32l24 11C152-15 129 4 87 4 38 3 12-23 12-71c0-70 32-119 99-123zm44 81c14-66-71-72-95-28-4 8-8 17-11 28h106" id="aP"/><g id="m"><use transform="matrix(0.05,0,0,0.05,0,0)" xlink:href="#aM"/><use transform="matrix(0.05,0,0,0.05,10,0)" xlink:href="#aN"/><use transform="matrix(0.05,0,0,0.05,20,0)" xlink:href="#aO"/><use transform="matrix(0.05,0,0,0.05,34.95,0)" xlink:href="#aP"/></g><path d="M194-120c59 52 2 134-86 124-53-6-90-18-98-63l31-7c8 30 29 43 70 43 46 0 84-17 71-62-32-43-135-20-137-98-3-89 178-90 191-16l-30 9c-8-48-127-53-127 5 0 53 81 35 115 65" id="aQ"/><path d="M51-54c-9 22 5 41 31 30L79-1C43 14 10-4 19-52l22-115H19l5-23h22l19-43h21l-9 43h35l-4 23H73" id="aR"/><path d="M50-231l6-30h32l-6 30H50zM6 0l37-190h31L37 0H6" id="aS"/><g id="n"><use transform="matrix(0.05,0,0,0.05,0,0)" xlink:href="#aQ"/><use transform="matrix(0.05,0,0,0.05,12,0)" xlink:href="#aR"/><use transform="matrix(0.05,0,0,0.05,17,0)" xlink:href="#ax"/><use transform="matrix(0.05,0,0,0.05,22.95,0)" xlink:href="#aS"/><use transform="matrix(0.05,0,0,0.05,26.899999999999995,0)" xlink:href="#aM"/><use transform="matrix(0.05,0,0,0.05,36.9,0)" xlink:href="#az"/></g><path d="M67-162c32-53 139-36 121 50C175-51 163 2 97 4 68 4 52-11 42-31 38 6 28 39 22 75H-9l50-265h29c-1 10 0 20-3 28zm89 36c0-26-10-43-35-43-54 0-67 50-69 103-1 29 14 45 42 46 53 0 62-58 62-106" id="aT"/><path d="M44-68c0 29 11 47 38 47 30 0 42-19 51-41l28 9C148-21 126 4 82 4 31 4 10-29 12-85c3-77 74-140 146-93 12 8 15 23 18 40l-31 5c-1-22-13-36-36-36-52 0-65 49-65 101" id="aU"/><g id="o"><use transform="matrix(0.05,0,0,0.05,0,0)" xlink:href="#aT"/><use transform="matrix(0.05,0,0,0.05,10,0)" xlink:href="#ax"/><use transform="matrix(0.05,0,0,0.05,15.949999999999998,0)" xlink:href="#aS"/><use transform="matrix(0.05,0,0,0.05,19.9,0)" xlink:href="#aU"/><use transform="matrix(0.05,0,0,0.05,28.899999999999995,0)" xlink:href="#aP"/></g><g id="p"><use transform="matrix(0.05,0,0,0.05,0,0)" xlink:href="#az"/><use transform="matrix(0.05,0,0,0.05,10,0)" xlink:href="#aP"/><use transform="matrix(0.05,0,0,0.05,20,0)" xlink:href="#aM"/><use transform="matrix(0.05,0,0,0.05,30,0)" xlink:href="#aP"/><use transform="matrix(0.05,0,0,0.05,40,0)" xlink:href="#ax"/><use transform="matrix(0.05,0,0,0.05,45.95,0)" xlink:href="#aS"/><use transform="matrix(0.05,0,0,0.05,49.900000000000006,0)" xlink:href="#aU"/></g><path d="M219-77C219 17 104-2 11 0l48-248c73 2 169-15 169 57 0 38-24 54-60 60 29 5 51 21 51 54zm-26-111c0-44-62-31-105-33l-16 79c55 0 121 9 121-46zm-7 110c-1-49-69-36-119-38L50-27c61-1 137 12 136-51" id="aV"/><path d="M30-147c31-64 166-65 159 27C183-49 158 1 86 4 9 8 1-88 30-147zM88-20c53 0 68-48 68-100 0-31-11-51-44-50-52 1-68 46-68 97 0 32 13 53 44 53" id="aW"/><path d="M6 0l50-261h32L37 0H6" id="aX"/><g id="q"><use transform="matrix(0.05,0,0,0.05,0,0)" xlink:href="#aV"/><use transform="matrix(0.05,0,0,0.05,12,0)" xlink:href="#aW"/><use transform="matrix(0.05,0,0,0.05,22,0)" xlink:href="#aW"/><use transform="matrix(0.05,0,0,0.05,32,0)" xlink:href="#aX"/><use transform="matrix(0.05,0,0,0.05,35.95,0)" xlink:href="#aP"/><use transform="matrix(0.05,0,0,0.05,45.95,0)" xlink:href="#aN"/><use transform="matrix(0.05,0,0,0.05,55.95,0)" xlink:href="#aM"/></g><path d="M100-194c62-1 85 37 85 99 1 63-27 99-86 99S16-35 15-95c0-66 28-99 85-99zM99-20c44 1 53-31 53-75 0-43-8-75-51-75s-53 32-53 75 10 74 51 75" id="aY"/><path d="M135-143c-3-34-86-38-87 0 15 53 115 12 119 90S17 21 10-45l28-5c4 36 97 45 98 0-10-56-113-15-118-90-4-57 82-63 122-42 12 7 21 19 24 35" id="aZ"/><path d="M141-36C126-15 110 5 73 4 37 3 15-17 15-53c-1-64 63-63 125-63 3-35-9-54-41-54-24 1-41 7-42 31l-33-3c5-37 33-52 76-52 45 0 72 20 72 64v82c-1 20 7 32 28 27v20c-31 9-61-2-59-35zM48-53c0 20 12 33 32 33 41-3 63-29 60-74-43 2-92-5-92 41" id="ba"/><g id="r"><use transform="matrix(0.05,0,0,0.05,0,0)" xlink:href="#aA"/><use transform="matrix(0.05,0,0,0.05,10,0)" xlink:href="#aY"/><use transform="matrix(0.05,0,0,0.05,20,0)" xlink:href="#aZ"/><use transform="matrix(0.05,0,0,0.05,29,0)" xlink:href="#ba"/><use transform="matrix(0.05,0,0,0.05,39,0)" xlink:href="#aD"/><use transform="matrix(0.05,0,0,0.05,49,0)" xlink:href="#aI"/></g><path d="M190 0L58-211 59 0H30v-248h39L202-35l-2-213h31V0h-41" id="bb"/><path d="M210-169c-67 3-38 105-44 169h-31v-121c0-29-5-50-35-48C34-165 62-65 56 0H25l-1-190h30c1 10-1 24 2 32 10-44 99-50 107 0 11-21 27-35 58-36 85-2 47 119 55 194h-31v-121c0-29-5-49-35-48" id="bc"/><g id="s"><use transform="matrix(0.05,0,0,0.05,0,0)" xlink:href="#bb"/><use transform="matrix(0.05,0,0,0.05,12.950000000000001,0)" xlink:href="#aC"/><use transform="matrix(0.05,0,0,0.05,22.950000000000003,0)" xlink:href="#bc"/><use transform="matrix(0.05,0,0,0.05,37.900000000000006,0)" xlink:href="#aG"/><use transform="matrix(0.05,0,0,0.05,47.900000000000006,0)" xlink:href="#aI"/><use transform="matrix(0.05,0,0,0.05,57.900000000000006,0)" xlink:href="#aB"/></g><path d="M76-167L44 0H12l33-167H18l4-23h27c3-47 25-81 82-69l-4 24c-35-8-44 15-46 45h37l-5 23H76" id="bd"/><path d="M198-190L69 30C53 58 25 83-20 72c4-11-1-27 19-22 33-1 43-29 59-52L20-190h32L79-34l84-156h35" id="be"/><g id="t"><use transform="matrix(0.05,0,0,0.05,0,0)" xlink:href="#bd"/><use transform="matrix(0.05,0,0,0.05,5,0)" xlink:href="#aN"/><use transform="matrix(0.05,0,0,0.05,15,0)" xlink:href="#aO"/><use transform="matrix(0.05,0,0,0.05,29.950000000000003,0)" xlink:href="#aS"/><use transform="matrix(0.05,0,0,0.05,33.900000000000006,0)" xlink:href="#aX"/><use transform="matrix(0.05,0,0,0.05,37.85000000000001,0)" xlink:href="#be"/></g><path d="M89 0H52L20-190h33L74-25l89-165h34" id="bf"/><path d="M188 0h-37l-8-164L71 0H34L18-190h31l8 164 75-164h34l8 164 74-164h31" id="bg"/><path d="M55-144c13 50 104 24 104 88C159 21 15 23 1-39l26-10c6 40 102 42 102-4-13-50-104-23-104-87 0-71 143-71 148-8l-29 4c-5-35-85-37-89 0" id="bh"/><g id="u"><use transform="matrix(0.05,0,0,0.05,0,0)" xlink:href="#ax"/><use transform="matrix(0.05,0,0,0.05,5.95,0)" xlink:href="#aP"/><use transform="matrix(0.05,0,0,0.05,15.949999999999998,0)" xlink:href="#bf"/><use transform="matrix(0.05,0,0,0.05,24.95,0)" xlink:href="#aS"/><use transform="matrix(0.05,0,0,0.05,28.899999999999995,0)" xlink:href="#aP"/><use transform="matrix(0.05,0,0,0.05,38.9,0)" xlink:href="#bg"/><use transform="matrix(0.05,0,0,0.05,51.85,0)" xlink:href="#bh"/></g><path d="M187 0l-14-72H61L19 0h-37l149-248h38L221 0h-34zm-19-99l-22-123L76-99h92" id="bi"/><g id="v"><use transform="matrix(0.05,0,0,0.05,0,0)" xlink:href="#bi"/><use transform="matrix(0.05,0,0,0.05,12,0)" xlink:href="#ax"/><use transform="matrix(0.05,0,0,0.05,17.95,0)" xlink:href="#ax"/><use transform="matrix(0.05,0,0,0.05,23.9,0)" xlink:href="#aN"/><use transform="matrix(0.05,0,0,0.05,33.9,0)" xlink:href="#be"/></g><g id="w"><use transform="matrix(0.05,0,0,0.05,0,0)" xlink:href="#aS"/><use transform="matrix(0.05,0,0,0.05,3.95,0)" xlink:href="#aO"/><use transform="matrix(0.05,0,0,0.05,18.900000000000002,0)" xlink:href="#aN"/><use transform="matrix(0.05,0,0,0.05,28.900000000000002,0)" xlink:href="#az"/><use transform="matrix(0.05,0,0,0.05,38.900000000000006,0)" xlink:href="#aP"/></g><path d="M249-183c0 48-29 72-75 77L221 0h-36l-43-103H65L45 0H11l48-248c83 2 190-17 190 65zm-34 3c0-55-74-39-127-41l-18 92c63-1 145 13 145-51" id="bj"/><g id="x"><use transform="matrix(0.05,0,0,0.05,0,0)" xlink:href="#bj"/><use transform="matrix(0.05,0,0,0.05,12.950000000000001,0)" xlink:href="#aP"/><use transform="matrix(0.05,0,0,0.05,22.950000000000003,0)" xlink:href="#bf"/><use transform="matrix(0.05,0,0,0.05,31.950000000000003,0)" xlink:href="#aS"/><use transform="matrix(0.05,0,0,0.05,35.900000000000006,0)" xlink:href="#aP"/><use transform="matrix(0.05,0,0,0.05,45.900000000000006,0)" xlink:href="#bg"/></g><path d="M17-49c1-102 45-165 103-212h30C92-210 49-145 49-46 49 4 63 43 85 75H54C30 43 18 2 17-49" id="bk"/><path d="M11 0l48-248h184l-5 28H87l-15 79h140l-5 27H67L50-27h158l-5 27H11" id="bl"/><path d="M68-162c25-46 127-43 121 31C183-60 169 1 98 4 69 5 53-11 43-31L36 0H5l52-261h31zm88 36c2-27-9-43-34-43-55 0-70 51-70 103 0 29 15 45 43 46 52 0 58-58 61-106" id="bm"/><path d="M133-28C103 26-5 8 13-77c13-62 24-115 90-117 29-1 46 15 56 35l19-102h32L160 0h-30zM45-64c-2 27 10 43 35 43 54-1 69-50 69-103 0-29-15-46-42-46-53-1-58 58-62 106" id="bn"/><path d="M98-137C97-35 54 29-4 75h-31C23 23 67-41 67-140c0-50-15-89-37-121h31c24 32 36 73 37 124" id="bo"/><g id="y"><use transform="matrix(0.05,0,0,0.05,0,0)" xlink:href="#bk"/><use transform="matrix(0.05,0,0,0.05,5.95,0)" xlink:href="#bl"/><use transform="matrix(0.05,0,0,0.05,17.95,0)" xlink:href="#aO"/><use transform="matrix(0.05,0,0,0.05,32.9,0)" xlink:href="#bm"/><use transform="matrix(0.05,0,0,0.05,42.9,0)" xlink:href="#aP"/><use transform="matrix(0.05,0,0,0.05,52.900000000000006,0)" xlink:href="#bn"/><use transform="matrix(0.05,0,0,0.05,62.900000000000006,0)" xlink:href="#bn"/><use transform="matrix(0.05,0,0,0.05,72.9,0)" xlink:href="#aP"/><use transform="matrix(0.05,0,0,0.05,82.9,0)" xlink:href="#bn"/><use transform="matrix(0.05,0,0,0.05,92.9,0)" xlink:href="#bo"/></g><path d="M108 0H70L1-190h34L89-25l56-165h34" id="bp"/><path d="M24-231v-30h32v30H24zM24 0v-190h32V0H24" id="bq"/><path d="M206 0h-36l-40-164L89 0H53L-1-190h32L70-26l43-164h34l41 164 42-164h31" id="br"/><g id="z"><use transform="matrix(0.05,0,0,0.05,0,0)" xlink:href="#aB"/><use transform="matrix(0.05,0,0,0.05,5.95,0)" xlink:href="#aI"/><use transform="matrix(0.05,0,0,0.05,15.949999999999998,0)" xlink:href="#bp"/><use transform="matrix(0.05,0,0,0.05,24.95,0)" xlink:href="#bq"/><use transform="matrix(0.05,0,0,0.05,28.899999999999995,0)" xlink:href="#aI"/><use transform="matrix(0.05,0,0,0.05,38.9,0)" xlink:href="#br"/><use transform="matrix(0.05,0,0,0.05,51.85,0)" xlink:href="#aE"/><use transform="matrix(0.05,0,0,0.05,56.85,0)" xlink:href="#aA"/></g><g id="A"><use transform="matrix(0.05,0,0,0.05,0,0)" xlink:href="#bh"/><use transform="matrix(0.05,0,0,0.05,9,0)" xlink:href="#aS"/><use transform="matrix(0.05,0,0,0.05,12.949999999999998,0)" xlink:href="#bn"/><use transform="matrix(0.05,0,0,0.05,22.95,0)" xlink:href="#aP"/><use transform="matrix(0.05,0,0,0.05,32.95,0)" xlink:href="#bl"/><use transform="matrix(0.05,0,0,0.05,44.95,0)" xlink:href="#bd"/><use transform="matrix(0.05,0,0,0.05,49.95,0)" xlink:href="#bd"/><use transform="matrix(0.05,0,0,0.05,54.95,0)" xlink:href="#aP"/><use transform="matrix(0.05,0,0,0.05,64.95,0)" xlink:href="#aU"/><use transform="matrix(0.05,0,0,0.05,73.95,0)" xlink:href="#aR"/></g><g id="B"><use transform="matrix(0.05,0,0,0.05,0,0)" xlink:href="#aU"/><use transform="matrix(0.05,0,0,0.05,9,0)" xlink:href="#aW"/><use transform="matrix(0.05,0,0,0.05,19,0)" xlink:href="#aM"/><use transform="matrix(0.05,0,0,0.05,29,0)" xlink:href="#aR"/><use transform="matrix(0.05,0,0,0.05,34,0)" xlink:href="#aP"/><use transform="matrix(0.05,0,0,0.05,44,0)" xlink:href="#aM"/><use transform="matrix(0.05,0,0,0.05,54,0)" xlink:href="#aR"/></g><g id="C"><use transform="matrix(0.05,0,0,0.05,0,0)" xlink:href="#aA"/><use transform="matrix(0.05,0,0,0.05,10,0)" xlink:href="#ba"/><use transform="matrix(0.05,0,0,0.05,20,0)" xlink:href="#aK"/><use transform="matrix(0.05,0,0,0.05,25,0)" xlink:href="#aI"/></g><g id="D"><use transform="matrix(0.05,0,0,0.05,0,0)" xlink:href="#aL"/><use transform="matrix(0.05,0,0,0.05,12.950000000000001,0)" xlink:href="#ba"/><use transform="matrix(0.05,0,0,0.05,22.950000000000003,0)" xlink:href="#aK"/><use transform="matrix(0.05,0,0,0.05,27.950000000000003,0)" xlink:href="#aI"/></g><path d="M117-194c89-4 53 116 60 194h-32v-121c0-31-8-49-39-48C34-167 62-67 57 0H25l-1-190h30c1 10-1 24 2 32 11-22 29-35 61-36" id="bs"/><g id="E"><use transform="matrix(0.05,0,0,0.05,0,0)" xlink:href="#aB"/><use transform="matrix(0.05,0,0,0.05,5.95,0)" xlink:href="#ba"/><use transform="matrix(0.05,0,0,0.05,15.949999999999998,0)" xlink:href="#aK"/><use transform="matrix(0.05,0,0,0.05,20.95,0)" xlink:href="#bq"/><use transform="matrix(0.05,0,0,0.05,24.9,0)" xlink:href="#bs"/><use transform="matrix(0.05,0,0,0.05,34.9,0)" xlink:href="#aD"/></g><path d="M24 0v-261h32V0H24" id="bt"/><path d="M143 0L79-87 56-68V0H24v-261h32v163l83-92h37l-77 82L181 0h-38" id="bu"/><g id="F"><use transform="matrix(0.05,0,0,0.05,0,0)" xlink:href="#bt"/><use transform="matrix(0.05,0,0,0.05,3.95,0)" xlink:href="#bq"/><use transform="matrix(0.05,0,0,0.05,7.9,0)" xlink:href="#bu"/><use transform="matrix(0.05,0,0,0.05,16.9,0)" xlink:href="#aI"/><use transform="matrix(0.05,0,0,0.05,26.899999999999995,0)" xlink:href="#aA"/></g><path d="M160-131c35 5 61 23 61 61C221 17 115-2 30 0v-248c76 3 177-17 177 60 0 33-19 50-47 57zm-97-11c50-1 110 9 110-42 0-47-63-36-110-37v79zm0 115c55-2 124 14 124-45 0-56-70-42-124-44v89" id="bv"/><g id="G"><use transform="matrix(0.05,0,0,0.05,0,0)" xlink:href="#bv"/><use transform="matrix(0.05,0,0,0.05,12,0)" xlink:href="#aY"/><use transform="matrix(0.05,0,0,0.05,22,0)" xlink:href="#aY"/><use transform="matrix(0.05,0,0,0.05,32,0)" xlink:href="#bt"/><use transform="matrix(0.05,0,0,0.05,35.95,0)" xlink:href="#aI"/><use transform="matrix(0.05,0,0,0.05,45.95,0)" xlink:href="#ba"/><use transform="matrix(0.05,0,0,0.05,55.95,0)" xlink:href="#bs"/></g><g id="H"><use transform="matrix(0.05,0,0,0.05,0,0)" xlink:href="#aw"/><use transform="matrix(0.05,0,0,0.05,12.950000000000001,0)" xlink:href="#ax"/><use transform="matrix(0.05,0,0,0.05,18.900000000000002,0)" xlink:href="#ay"/><use transform="matrix(0.05,0,0,0.05,28.900000000000002,0)" xlink:href="#az"/></g><path d="M87-220l-18 92h140l-5 28H64L45 0H11l48-248h178l-5 28H87" id="bw"/><g id="I"><use transform="matrix(0.05,0,0,0.05,0,0)" xlink:href="#bw"/><use transform="matrix(0.05,0,0,0.05,10.950000000000001,0)" xlink:href="#aN"/><use transform="matrix(0.05,0,0,0.05,20.950000000000003,0)" xlink:href="#aO"/><use transform="matrix(0.05,0,0,0.05,35.900000000000006,0)" xlink:href="#aS"/><use transform="matrix(0.05,0,0,0.05,39.85000000000001,0)" xlink:href="#aX"/><use transform="matrix(0.05,0,0,0.05,43.80000000000001,0)" xlink:href="#be"/></g><g id="J"><use transform="matrix(0.05,0,0,0.05,0,0)" xlink:href="#bk"/><use transform="matrix(0.05,0,0,0.05,5.95,0)" xlink:href="#bj"/><use transform="matrix(0.05,0,0,0.05,18.900000000000002,0)" xlink:href="#aP"/><use transform="matrix(0.05,0,0,0.05,28.900000000000002,0)" xlink:href="#bd"/><use transform="matrix(0.05,0,0,0.05,33.900000000000006,0)" xlink:href="#aP"/><use transform="matrix(0.05,0,0,0.05,43.900000000000006,0)" xlink:href="#ax"/><use transform="matrix(0.05,0,0,0.05,49.85000000000001,0)" xlink:href="#aP"/><use transform="matrix(0.05,0,0,0.05,59.85,0)" xlink:href="#aM"/><use transform="matrix(0.05,0,0,0.05,69.85000000000001,0)" xlink:href="#aU"/><use transform="matrix(0.05,0,0,0.05,78.85000000000001,0)" xlink:href="#aP"/><use transform="matrix(0.05,0,0,0.05,88.85000000000001,0)" xlink:href="#bn"/><use transform="matrix(0.05,0,0,0.05,98.85000000000001,0)" xlink:href="#bo"/></g><path d="M101-234c-31-9-42 10-38 44h38v23H63V0H32v-167H5v-23h27c-7-52 17-82 69-68v24" id="bx"/><path d="M179-190L93 31C79 59 56 82 12 73V49c39 6 53-20 64-50L1-190h34L92-34l54-156h33" id="by"/><g id="K"><use transform="matrix(0.05,0,0,0.05,0,0)" xlink:href="#bx"/><use transform="matrix(0.05,0,0,0.05,5,0)" xlink:href="#ba"/><use transform="matrix(0.05,0,0,0.05,15,0)" xlink:href="#bc"/><use transform="matrix(0.05,0,0,0.05,29.950000000000003,0)" xlink:href="#bq"/><use transform="matrix(0.05,0,0,0.05,33.900000000000006,0)" xlink:href="#bt"/><use transform="matrix(0.05,0,0,0.05,37.85000000000001,0)" xlink:href="#by"/><use transform="matrix(0.05,0,0,0.05,46.85000000000001,0)" xlink:href="#aE"/><use transform="matrix(0.05,0,0,0.05,51.85,0)" xlink:href="#aA"/></g><g id="L"><use transform="matrix(0.05,0,0,0.05,0,0)" xlink:href="#bn"/><use transform="matrix(0.05,0,0,0.05,10,0)" xlink:href="#ax"/><use transform="matrix(0.05,0,0,0.05,15.949999999999998,0)" xlink:href="#ay"/><use transform="matrix(0.05,0,0,0.05,25.950000000000003,0)" xlink:href="#az"/><use transform="matrix(0.05,0,0,0.05,35.95,0)" xlink:href="#bh"/></g><path d="M62-99C39-31 123 0 170-40s38-139 58-208h34C234-144 253 4 115 4 49 4 18-43 31-112l26-136h34" id="bz"/><g id="M"><use transform="matrix(0.05,0,0,0.05,0,0)" xlink:href="#bz"/><use transform="matrix(0.05,0,0,0.05,12.950000000000001,0)" xlink:href="#bh"/><use transform="matrix(0.05,0,0,0.05,21.950000000000003,0)" xlink:href="#aP"/><use transform="matrix(0.05,0,0,0.05,31.950000000000003,0)" xlink:href="#ax"/></g><g id="N"><use transform="matrix(0.05,0,0,0.05,0,0)" xlink:href="#aD"/><use transform="matrix(0.05,0,0,0.05,10,0)" xlink:href="#aY"/><use transform="matrix(0.05,0,0,0.05,20,0)" xlink:href="#aY"/><use transform="matrix(0.05,0,0,0.05,30,0)" xlink:href="#aD"/><use transform="matrix(0.05,0,0,0.05,40,0)" xlink:href="#bt"/><use transform="matrix(0.05,0,0,0.05,43.95,0)" xlink:href="#aI"/><use transform="matrix(0.05,0,0,0.05,53.95,0)" xlink:href="#aE"/><use transform="matrix(0.05,0,0,0.05,58.95,0)" xlink:href="#aA"/></g><path d="M185-189c-5-48-123-54-124 2 14 75 158 14 163 119 3 78-121 87-175 55-17-10-28-26-33-46l33-7c5 56 141 63 141-1 0-78-155-14-162-118-5-82 145-84 179-34 5 7 8 16 11 25" id="bA"/><g id="O"><use transform="matrix(0.05,0,0,0.05,0,0)" xlink:href="#bA"/><use transform="matrix(0.05,0,0,0.05,12,0)" xlink:href="#aK"/><use transform="matrix(0.05,0,0,0.05,17,0)" xlink:href="#aB"/><use transform="matrix(0.05,0,0,0.05,22.95,0)" xlink:href="#bq"/><use transform="matrix(0.05,0,0,0.05,26.899999999999995,0)" xlink:href="#bs"/><use transform="matrix(0.05,0,0,0.05,36.9,0)" xlink:href="#aD"/></g><g id="P"><use transform="matrix(0.05,0,0,0.05,0,0)" xlink:href="#aP"/><use transform="matrix(0.05,0,0,0.05,10,0)" xlink:href="#aO"/><use transform="matrix(0.05,0,0,0.05,24.950000000000003,0)" xlink:href="#aN"/><use transform="matrix(0.05,0,0,0.05,34.95,0)" xlink:href="#aS"/><use transform="matrix(0.05,0,0,0.05,38.900000000000006,0)" xlink:href="#aX"/></g><g id="Q"><use transform="matrix(0.05,0,0,0.05,0,0)" xlink:href="#aN"/><use transform="matrix(0.05,0,0,0.05,10,0)" xlink:href="#bf"/><use transform="matrix(0.05,0,0,0.05,19,0)" xlink:href="#aN"/><use transform="matrix(0.05,0,0,0.05,29,0)" xlink:href="#aR"/><use transform="matrix(0.05,0,0,0.05,34,0)" xlink:href="#aN"/><use transform="matrix(0.05,0,0,0.05,44,0)" xlink:href="#ax"/><use transform="matrix(0.05,0,0,0.05,49.95,0)" xlink:href="#bz"/><use transform="matrix(0.05,0,0,0.05,62.900000000000006,0)" xlink:href="#ax"/><use transform="matrix(0.05,0,0,0.05,68.85000000000001,0)" xlink:href="#aX"/></g><path d="M127 0L80-88 50-66 37 0H6l51-261h31L57-100l99-90h39l-93 82L161 0h-34" id="bB"/><g id="R"><use transform="matrix(0.05,0,0,0.05,0,0)" xlink:href="#aX"/><use transform="matrix(0.05,0,0,0.05,3.95,0)" xlink:href="#aS"/><use transform="matrix(0.05,0,0,0.05,7.9,0)" xlink:href="#bB"/><use transform="matrix(0.05,0,0,0.05,16.9,0)" xlink:href="#aP"/><use transform="matrix(0.05,0,0,0.05,26.899999999999995,0)" xlink:href="#bn"/><use transform="matrix(0.05,0,0,0.05,36.9,0)" xlink:href="#aw"/><use transform="matrix(0.05,0,0,0.05,49.85,0)" xlink:href="#ax"/><use transform="matrix(0.05,0,0,0.05,55.800000000000004,0)" xlink:href="#ay"/><use transform="matrix(0.05,0,0,0.05,65.80000000000001,0)" xlink:href="#az"/><use transform="matrix(0.05,0,0,0.05,75.80000000000001,0)" xlink:href="#bh"/></g></defs></g></svg>